<?xml version="1.0" encoding="iso-8859-1"?>
<!-- Generator: Adobe Illustrator 19.0.0, SVG Export Plug-In . SVG Version: 6.00 Build 0)  -->
<svg version="1.1" id="Layer_1" xmlns="http://www.w3.org/2000/svg" xmlns:xlink="http://www.w3.org/1999/xlink" x="0px" y="0px"
	 viewBox="0 0 511.999 511.999" style="enable-background:new 0 0 511.999 511.999;" xml:space="preserve">
<path style="fill:#F59D00;" d="M445.414,221.609h-66.402c-8.728,0-16.558,5.372-19.696,13.518
	c-23.892,62.009-69.393,143.696-103.32,200.669v61.791c0.001,0,0.003,0,0.004,0h189.414c11.657,0,21.107-9.45,21.107-21.107V242.715
	C466.521,231.06,457.07,221.609,445.414,221.609z"/>
<path style="fill:#39A3DB;" d="M490.877,263.823H379.01c-14.813,0-25.017-14.892-19.694-28.698
	c12.823-33.266,15.515-50.809,15.515-59.668c0-29.471-10.871-57.739-30.609-79.597c-12.235-13.551-2.586-35.253,15.666-35.253
	h74.705c8.972,0,16.964,5.672,19.925,14.142l56.285,161.004C515.596,249.465,505.396,263.823,490.877,263.823z"/>
<path style="fill:#F2C500;" d="M256,497.59H66.585c-11.657,0-21.107-9.45-21.107-21.107V242.716c0-11.657,9.45-21.107,21.107-21.107
	h66.404c8.728,0,16.558,5.372,19.696,13.518c13.798,35.811,36.068,81.588,66.191,136.06l-0.001-0.001
	c28.946,52.334,54.764,93.692,55.022,94.105C282.669,479.322,272.565,497.59,256,497.59z"/>
<path style="fill:#48AEE2;" d="M132.989,263.823H21.122c-14.529,0-24.715-14.368-19.925-28.072L57.482,74.747
	c2.961-8.47,10.953-14.142,19.925-14.142h74.705c18.256,0,27.896,21.706,15.666,35.253c-19.738,21.858-30.609,50.125-30.609,79.597
	c0,8.859,2.692,26.403,15.515,59.668C158.009,248.941,147.79,263.823,132.989,263.823z"/>
<path style="fill:#FF5E5B;" d="M375.558,67.572c-30.486-33.785-74.063-53.163-119.56-53.163s-89.074,19.378-119.554,53.157
	c-26.755,29.63-41.492,67.946-41.492,107.889c0,18.353,6,42.837,18.339,74.848c14.491,37.611,37.584,85.155,68.641,141.315
	c57.668,104.26,60.777,105.97,74.066,105.97c13.278,0,16.389-1.694,74.067-105.971c31.055-56.159,54.149-103.703,68.638-141.31
	c12.341-32.015,18.341-56.499,18.341-74.852C417.046,135.513,402.309,97.196,375.558,67.572z M277.107,285.445
	c0,11.657-9.45,21.107-21.107,21.107c-11.657,0-21.107-9.45-21.107-21.107V199.99c0-11.657,9.45-21.107,21.107-21.107
	c11.657,0,21.107,9.45,21.107,21.107V285.445z M277.107,138.406c0,11.657-9.45,21.107-21.107,21.107
	c-11.657,0-21.107-9.45-21.107-21.107v-20.403c0-11.657,9.45-21.107,21.107-21.107c11.657,0,21.107,9.45,21.107,21.107V138.406z"/>
<path style="fill:#FF423D;" d="M375.558,67.572c-30.486-33.785-74.063-53.163-119.56-53.163c-0.001,0-0.003,0-0.004,0v82.486
	c0.001,0,0.003,0,0.004,0c11.657,0,21.107,9.45,21.107,21.107v20.403c0,11.657-9.45,21.107-21.107,21.107c-0.001,0-0.003,0-0.004,0
	v19.372c0.001,0,0.003,0,0.004,0c11.657,0,21.107,9.45,21.107,21.107v85.455c0,11.657-9.45,21.107-21.107,21.107
	c-0.001,0-0.003,0-0.004,0V497.59c0.001,0,0.003,0,0.004,0c13.278,0,16.389-1.694,74.067-105.971
	c31.055-56.159,54.149-103.703,68.638-141.31c12.341-32.015,18.341-56.499,18.341-74.852
	C417.046,135.513,402.309,97.196,375.558,67.572z"/>
<g>
</g>
<g>
</g>
<g>
</g>
<g>
</g>
<g>
</g>
<g>
</g>
<g>
</g>
<g>
</g>
<g>
</g>
<g>
</g>
<g>
</g>
<g>
</g>
<g>
</g>
<g>
</g>
<g>
</g>
</svg>
